<svg preserveAspectRatio="none" overflow="visible" style="display: block;" width="28" height="28" viewBox="0 0 28 28" fill="none" xmlns="http://www.w3.org/2000/svg">
<g id="griddy-icons:chat-filled">
<path id="Vector" fill-rule="evenodd" clip-rule="evenodd" d="M6.1851 3.86948H16.968C17.754 3.8709 18.5074 4.18377 19.0632 4.73956C19.619 5.29535 19.9318 6.04876 19.9332 6.83476V13.849C19.9318 14.635 19.619 15.3884 19.0632 15.9442C18.5074 16.5 17.754 16.8129 16.968 16.8143H8.1368L5.52195 19.4292C5.33308 19.6181 5.09234 19.7466 4.83027 19.7985C4.56821 19.8503 4.29666 19.8231 4.05009 19.7203C3.80411 19.618 3.59396 19.4451 3.44618 19.2234C3.2984 19.0018 3.21963 18.7413 3.21981 18.4749V6.83476C3.22123 6.04876 3.53411 5.29535 4.0899 4.73956C4.64569 4.18377 5.39909 3.8709 6.1851 3.86948ZM21.5507 8.72177H21.8149C22.6009 8.72319 23.3543 9.03606 23.9101 9.59185C24.4659 10.1476 24.7787 10.901 24.7801 11.6871V22.7826C24.7816 22.96 24.7477 23.1359 24.6805 23.3001C24.6132 23.4643 24.514 23.6135 24.3886 23.7389C24.2631 23.8644 24.114 23.9636 23.9498 24.0308C23.7856 24.098 23.6097 24.1319 23.4323 24.1305C23.0872 24.1305 22.7422 23.9957 22.4834 23.7369L20.4077 21.6612H13.7331C12.9471 21.6598 12.1937 21.3469 11.6379 20.7911C11.0821 20.2353 10.7692 19.4819 10.7678 18.6959V18.421H16.968C18.1831 18.4201 19.3482 17.937 20.2075 17.0778C21.0667 16.2185 21.5498 15.0534 21.5507 13.8382V8.72177Z" fill="#2F2F2F"/>
</g>
</svg>
