<svg preserveAspectRatio="none" overflow="visible" style="display: block;" width="160" height="32" viewBox="0 0 160 32" fill="none" xmlns="http://www.w3.org/2000/svg">
<g id="Frame 217">
<line id="Line 5" x1="2.5" y1="14.5542" x2="2.5" y2="17.4458" stroke="#09C357" stroke-width="3" stroke-linecap="round"/>
<line id="Line 6" x1="7.5" y1="4.74854" x2="7.5" y2="27.2515" stroke="#09C357" stroke-width="3" stroke-linecap="round"/>
<line id="Line 7" x1="12.5" y1="3.74023" x2="12.5" y2="28.2598" stroke="#09C357" stroke-width="3" stroke-linecap="round"/>
<line id="Line 8" x1="17.5" y1="8.50586" x2="17.5" y2="23.4941" stroke="#09C357" stroke-width="3" stroke-linecap="round"/>
<line id="Line 9" x1="22.5" y1="9.97217" x2="22.5" y2="22.0278" stroke="#09C357" stroke-width="3" stroke-linecap="round"/>
<line id="Line 10" x1="27.5" y1="5.00293" x2="27.5" y2="26.9971" stroke="#09C357" stroke-width="3" stroke-linecap="round"/>
<line id="Line 11" x1="32.5" y1="5.00293" x2="32.5" y2="26.9971" stroke="#09C357" stroke-width="3" stroke-linecap="round"/>
<line id="Line 12" x1="37.5" y1="13.2642" x2="37.5" y2="18.7358" stroke="#09C357" stroke-width="3" stroke-linecap="round"/>
<line id="Line 13" x1="42.5" y1="13.9971" x2="42.5" y2="18.0029" stroke="#09C357" stroke-width="3" stroke-linecap="round"/>
<line id="Line 14" x1="47.5" y1="12.6299" x2="47.5" y2="19.3701" stroke="#09C357" stroke-width="3" stroke-linecap="round"/>
<line id="Line 15" x1="52.5" y1="16.3799" x2="52.5" y2="15.6201" stroke="#B0B0B5" stroke-width="3" stroke-linecap="round"/>
<line id="Line 16" x1="57.5" y1="7.06494" x2="57.5" y2="24.9351" stroke="#B0B0B5" stroke-width="3" stroke-linecap="round"/>
<line id="Line 17" x1="62.5" y1="3.49561" x2="62.5" y2="28.5044" stroke="#B0B0B5" stroke-width="3" stroke-linecap="round"/>
<line id="Line 18" x1="67.5" y1="3.25146" x2="67.5" y2="28.7485" stroke="#B0B0B5" stroke-width="3" stroke-linecap="round"/>
<line id="Line 19" x1="72.5" y1="3.25146" x2="72.5" y2="28.7485" stroke="#B0B0B5" stroke-width="3" stroke-linecap="round"/>
<line id="Line 20" x1="77.5" y1="5.00293" x2="77.5" y2="26.9971" stroke="#B0B0B5" stroke-width="3" stroke-linecap="round"/>
<line id="Line 21" x1="82.5" y1="2.37598" x2="82.5" y2="29.624" stroke="#B0B0B5" stroke-width="3" stroke-linecap="round"/>
<line id="Line 22" x1="87.5" y1="4.28223" x2="87.5" y2="27.7178" stroke="#B0B0B5" stroke-width="3" stroke-linecap="round"/>
<line id="Line 23" x1="92.5" y1="6.56592" x2="92.5" y2="25.4341" stroke="#B0B0B5" stroke-width="3" stroke-linecap="round"/>
<line id="Line 24" x1="97.5" y1="10.0601" x2="97.5" y2="21.9399" stroke="#B0B0B5" stroke-width="3" stroke-linecap="round"/>
<line id="Line 25" x1="102.5" y1="4.28223" x2="102.5" y2="27.7178" stroke="#B0B0B5" stroke-width="3" stroke-linecap="round"/>
<line id="Line 26" x1="107.5" y1="4.28223" x2="107.5" y2="27.7178" stroke="#B0B0B5" stroke-width="3" stroke-linecap="round"/>
<line id="Line 27" x1="112.5" y1="2.62012" x2="112.5" y2="29.3799" stroke="#B0B0B5" stroke-width="3" stroke-linecap="round"/>
<line id="Line 28" x1="117.5" y1="6.56592" x2="117.5" y2="25.4341" stroke="#B0B0B5" stroke-width="3" stroke-linecap="round"/>
<line id="Line 29" x1="122.5" y1="3.61182" x2="122.5" y2="28.3882" stroke="#B0B0B5" stroke-width="3" stroke-linecap="round"/>
<line id="Line 30" x1="127.5" y1="10.46" x2="127.5" y2="21.54" stroke="#B0B0B5" stroke-width="3" stroke-linecap="round"/>
<line id="Line 36" x1="132.5" y1="13.02" x2="132.5" y2="18.98" stroke="#B0B0B5" stroke-width="3" stroke-linecap="round"/>
<line id="Line 37" x1="137.5" y1="9.5" x2="137.5" y2="22.5" stroke="#B0B0B5" stroke-width="3" stroke-linecap="round"/>
<line id="Line 38" x1="142.5" y1="7.74854" x2="142.5" y2="24.2515" stroke="#B0B0B5" stroke-width="3" stroke-linecap="round"/>
<line id="Line 39" x1="147.5" y1="10.9731" x2="147.5" y2="21.0269" stroke="#B0B0B5" stroke-width="3" stroke-linecap="round"/>
<line id="Line 40" x1="152.5" y1="10.7661" x2="152.5" y2="21.2339" stroke="#B0B0B5" stroke-width="3" stroke-linecap="round"/>
<line id="Line 41" x1="157.5" y1="15.2603" x2="157.5" y2="16.7397" stroke="#B0B0B5" stroke-width="3" stroke-linecap="round"/>
</g>
</svg>
